<?xml version="1.0" encoding="UTF-8"?>
<svg width="9.6214mm" height="9.6214mm" version="1.1" viewBox="0 0 9.6214 9.6214" xmlns="http://www.w3.org/2000/svg" xmlns:cc="http://creativecommons.org/ns#" xmlns:dc="http://purl.org/dc/elements/1.1/" xmlns:rdf="http://www.w3.org/1999/02/22-rdf-syntax-ns#">
 <metadata>
  <rdf:RDF>
   <cc:Work rdf:about="">
    <dc:format>image/svg+xml</dc:format>
    <dc:type rdf:resource="http://purl.org/dc/dcmitype/StillImage"/>
    <dc:title/>
   </cc:Work>
  </rdf:RDF>
 </metadata>
 <g transform="translate(-132.97 -49.543)">
  <path d="m135.07 56.677c-0.20777-0.0652-0.36834-0.25112-0.40338-0.46708-9e-3 -0.05735-0.0148-0.55102-0.0149-1.341-1.1e-4 -1.1086 2e-3 -1.2539 0.0221-1.282 0.0122-0.01747 0.0353-0.03175 0.0513-0.03175s0.14255 0.08568 0.2813 0.19041c0.25888 0.19539 0.88292 0.65416 1.4022 1.0308 0.16106 0.11683 0.35711 0.26182 0.43567 0.32221 0.6798 0.5226 1.0439 0.56154 1.6284 0.17416 0.0707-0.04687 0.26106-0.18412 0.42301-0.30503 0.16195-0.12091 0.48008-0.35481 0.70697-0.51979 0.22688-0.16498 0.5908-0.43335 0.80869-0.59636 0.21791-0.16302 0.40882-0.2964 0.42425-0.2964 0.0155 0 0.0381 0.01428 0.0503 0.03175 0.0197 0.02813 0.0222 0.17463 0.022 1.2963 0 1.3706-1e-3 1.3805-0.078 1.5176-0.0557 0.09888-0.15906 0.19472-0.26457 0.24525l-0.0928 0.04446-2.6711 3e-3c-2.1807 0.0024-2.6822-0.0012-2.7313-0.0162zm2.5813-1.5568c-0.13291-0.03711-0.33865-0.15922-0.58024-0.34447-0.0638-0.04892-0.29521-0.21936-0.51423-0.37874-1.4393-1.0474-1.8191-1.3388-1.8672-1.4327-0.035-0.06836-0.0478-0.28203-0.0262-0.43547 0.0365-0.25885 0.23279-0.45964 0.49018-0.50141 0.12685-0.02054 5.1269-0.0203 5.2545 2.72e-4 0.25218 0.04072 0.44833 0.239 0.48797 0.49329 0.0217 0.13947 9e-3 0.37015-0.0237 0.43952-0.0148 0.03102-0.0675 0.08962-0.12029 0.13362-0.13543 0.11292-0.9545 0.72543-1.5367 1.1491-0.27497 0.20012-0.60746 0.44414-0.73888 0.54225-0.41396 0.30906-0.61904 0.39224-0.82523 0.33471z" fill="#fff" stroke-width=".014284"/>
 </g>
</svg>
