<?xml version="1.0" encoding="UTF-8"?>
<svg width="9.6214mm" height="9.6214mm" version="1.1" viewBox="0 0 9.6214 9.6214" xmlns="http://www.w3.org/2000/svg" xmlns:cc="http://creativecommons.org/ns#" xmlns:dc="http://purl.org/dc/elements/1.1/" xmlns:rdf="http://www.w3.org/1999/02/22-rdf-syntax-ns#">
 <metadata>
  <rdf:RDF>
   <cc:Work rdf:about="">
    <dc:format>image/svg+xml</dc:format>
    <dc:type rdf:resource="http://purl.org/dc/dcmitype/StillImage"/>
    <dc:title/>
   </cc:Work>
  </rdf:RDF>
 </metadata>
 <g transform="translate(-129.09 -38.936)">
  <path d="m132.86 46.642c-0.3973-0.14832-0.76183-0.38194-1.065-0.68251-0.40422-0.4008-0.67161-0.86992-0.81057-1.4221-0.0683-0.27132-0.0918-0.47091-0.0923-0.78357-6e-4 -0.52117 0.0981-0.93544 0.33182-1.3896 0.37279-0.72434 1.0506-1.2606 1.8458-1.4604 0.29096-0.0731 0.46907-0.09419 0.79981-0.09472 1.1148-0.0018 2.1129 0.55966 2.655 1.4936 0.48763 0.83998 0.51369 1.939 0.0676 2.8517-0.33139 0.67805-0.92387 1.2227-1.602 1.4728-0.14152 0.05217-0.22274 0.05434-0.27738 0.0073l-0.0399-0.03428-7e-3 -0.65182c-7e-3 -0.58595-0.0101-0.659-0.0337-0.72292-0.0385-0.10468-0.0745-0.17086-0.12324-0.22634l-0.0434-0.0494 0.047-0.0075c0.0258-0.0042 0.11911-0.01753 0.20724-0.02976 0.67741-0.09398 0.99914-0.36342 1.1067-0.92682 0.0307-0.1608 0.0349-0.50666 7e-3 -0.6159-0.0342-0.13634-0.10541-0.26541-0.22519-0.40824l-0.0621-0.07407 0.0222-0.08236c0.0499-0.18491 0.041-0.44716-0.0221-0.6514-0.024-0.07762-0.0344-0.09342-0.067-0.10163-0.10743-0.02705-0.42501 0.09278-0.69506 0.2623-0.10618 0.06666-0.12019 0.07173-0.16354 0.05922-0.0261-0.0075-0.11779-0.02771-0.20382-0.04482-0.13397-0.02669-0.2054-0.03126-0.49771-0.03193-0.34822-6.03e-4 -0.43619 0.0078-0.66373 0.06455l-0.10915 0.02723-0.083-0.05512c-0.0457-0.0303-0.15335-0.09093-0.23937-0.13471-0.31266-0.15913-0.49818-0.19307-0.53453-0.0978-0.0814 0.21338-0.0982 0.54383-0.0366 0.72128l0.0198 0.05687-0.0783 0.09954c-0.0931 0.1183-0.16428 0.26491-0.18833 0.38779-0.0268 0.13695-0.01 0.56026 0.0284 0.71365 0.0612 0.24476 0.19448 0.46203 0.36156 0.58934 0.17148 0.13066 0.46532 0.22466 0.80513 0.25758 0.1505 0.01458 0.14845 0.01229 0.0857 0.09521-0.0496 0.06554-0.12836 0.25945-0.12836 0.31606 0 0.04078-0.18746 0.08623-0.3555 0.08623-0.13223 0-0.15861-0.0042-0.23062-0.03813-0.10456-0.04898-0.21228-0.14975-0.29118-0.27234-0.0834-0.12951-0.17099-0.21205-0.28441-0.26789-0.0797-0.03922-0.10952-0.04621-0.20008-0.04669-0.0854-4.82e-4 -0.10952 0.0042-0.12203 0.02374-0.0219 0.03428 0.0208 0.08805 0.13228 0.16625 0.11406 0.08004 0.19633 0.19166 0.30065 0.4079 0.11494 0.23828 0.21236 0.32309 0.44044 0.38341 0.0993 0.02627 0.37395 0.03548 0.5122 0.01717l0.0795-0.01054 9e-3 0.35891c8e-3 0.33043 3e-3 0.43329-0.0258 0.47956-0.0133 0.02139-0.0969 0.05735-0.13122 0.05645-0.0139-3.73e-4 -0.0733-0.01861-0.132-0.04048zm-0.081-1.0914c-5e-3 -0.01434 1e-3 -0.03084 0.0174-0.04265 0.0345-0.02524 0.0565-0.02434 0.0844 0.0036 0.0177 0.01765 0.0191 0.02735 6e-3 0.04265-0.0231 0.02783-0.097 0.02536-0.10816-0.0036zm-0.22871-0.02717c-0.0388-0.02723-0.0399-0.04349-4e-3 -0.06275 0.0195-0.01042 0.0383-0.0099 0.064 0.0018 0.0405 0.01849 0.0485 0.06119 0.0139 0.07448-0.0322 0.01235-0.0386 0.0112-0.0739-0.01349zm0.45978 0.0092c-0.0284-0.0459 0.0624-0.09351 0.10229-0.05362 0.0185 0.01849 0.0192 0.02633 4e-3 0.04452-0.0198 0.02386-0.0934 0.03018-0.10645 0.0091zm-0.643-0.11554c-0.0353-0.01362-0.0571-0.06666-0.0361-0.08768 0.02-0.02 0.0711-6.03e-4 0.0896 0.03392 0.0211 0.03946-0.01 0.07062-0.0535 0.05373zm-0.1726-0.18721c-0.0422-0.04223 2e-3 -0.10578 0.0471-0.06811 0.0307 0.02542 0.0275 0.08517-4e-3 0.08517-0.0141 0-0.0333-0.0077-0.0427-0.01705zm-0.11376-0.17064c-0.0272-0.02723-0.0207-0.06826 0.0109-0.06826 0.0301 0 0.0642 0.04856 0.0501 0.0714-0.0117 0.01898-0.0403 0.01753-0.061-3e-3zm-0.12727-0.12034c-0.01-0.0042-0.0178-0.01669-0.0178-0.02831 0-0.03018 0.0625-0.01843 0.0684 0.01283 5e-3 0.02428-0.0144 0.03012-0.0507 0.01548z" fill="#fff" stroke-width=".01422"/>
 </g>
</svg>
