<?xml version="1.0" encoding="UTF-8"?>
<svg width="15.971mm" height="15.971mm" version="1.1" viewBox="4.1 6 8 5" xmlns="http://www.w3.org/2000/svg" xmlns:cc="http://creativecommons.org/ns#" xmlns:dc="http://purl.org/dc/elements/1.1/" xmlns:rdf="http://www.w3.org/1999/02/22-rdf-syntax-ns#">
 <metadata>
  <rdf:RDF>
   <cc:Work rdf:about="">
    <dc:format>image/svg+xml</dc:format>
    <dc:type rdf:resource="http://purl.org/dc/dcmitype/StillImage"/>
    <dc:title/>
   </cc:Work>
  </rdf:RDF>
 </metadata>
 <g transform="translate(-101.84 -49.239)">
  <path d="m110.01 54.138c-0.30161 0-0.60289 0.06005-0.83399 0.18039l-3.1195 1.6241c-0.4622 0.24066-0.4622 0.62819 0 0.86886l3.1195 1.6241c0.4622 0.24066 1.2064 0.24066 1.6686 0l2.3198-1.208v1.9416c0 0.17003 0.0638 0.18507 0.12085 0.02526 0.0481-0.13463 0.0955-0.26891 0.1377-0.30365 9e-3 -0.0077 0.0314-0.0073 0.0408 6.09e-4 0.042 0.03523 0.0891 0.16856 0.13709 0.30245 0.0571 0.15949 0.12147 0.14417 0.12147-0.02585v-2.2308l0.24111-0.12567c0.4622-0.24066 0.4622-0.6282 0-0.86886l-3.1189-1.6241c-0.2311-0.12033-0.53298-0.18039-0.83458-0.18039zm-2.5332 3.9577v0.77866c7e-5 0.55253 1.1343 1.2669 2.5332 1.2669 1.3989 6e-6 2.5332-0.71438 2.5332-1.2669v-0.77867l-1.6986 0.88449c-0.46219 0.24066-1.2064 0.24066-1.6686 0z" fill="#fff"/>
 </g>
</svg>
