<?xml version="1.0" encoding="UTF-8"?>
<svg width="9.6214mm" height="9.6214mm" version="1.1" viewBox="0 0 9.6214 9.6214" xmlns="http://www.w3.org/2000/svg" xmlns:cc="http://creativecommons.org/ns#" xmlns:dc="http://purl.org/dc/elements/1.1/" xmlns:rdf="http://www.w3.org/1999/02/22-rdf-syntax-ns#">
 <metadata>
  <rdf:RDF>
   <cc:Work rdf:about="">
    <dc:format>image/svg+xml</dc:format>
    <dc:type rdf:resource="http://purl.org/dc/dcmitype/StillImage"/>
    <dc:title/>
   </cc:Work>
  </rdf:RDF>
 </metadata>
 <g transform="translate(-130.61 -37.709)">
  <path d="m132.58 44.492v-0.61746h1.4229c0.78262 0 1.4229-0.0012 1.4229-3e-3s-0.64025-0.55106-1.4228-1.2211l-1.4228-1.2183-1.8e-4 -0.75109c-9e-5 -0.41311 2.7e-4 -0.75109 2e-3 -0.75109 1e-3 0 2.565 2.1947 2.8409 2.4318 5e-3 0.0048 0.16382-0.13006 1.4231-1.2087 0.7794-0.66763 1.4199-1.2161 1.4234-1.2189 6e-3 -0.0048 6e-3 0.03795 6e-3 0.74651v0.7516l-1.422 1.2179c-0.7821 0.66984-1.4226 1.2193-1.4232 1.2211-6e-4 0.0018 0.62296 3e-3 1.422 3e-3h1.4232v1.2349h-5.6955z" fill="#fff" stroke-width=".0036864"/>
 </g>
</svg>
