<?xml version="1.0" encoding="UTF-8"?>
<svg width="15.971mm" height="15.971mm" version="1.1" viewBox="0 0 15.971 15.971" xmlns="http://www.w3.org/2000/svg" xmlns:cc="http://creativecommons.org/ns#" xmlns:dc="http://purl.org/dc/elements/1.1/" xmlns:rdf="http://www.w3.org/1999/02/22-rdf-syntax-ns#">
 <metadata>
  <rdf:RDF>
   <cc:Work rdf:about="">
    <dc:format>image/svg+xml</dc:format>
    <dc:type rdf:resource="http://purl.org/dc/dcmitype/StillImage"/>
    <dc:title/>
   </cc:Work>
  </rdf:RDF>
 </metadata>
 <g transform="translate(-106.76 -73.397)">
  <path d="m111.39 78.271a0.97046 0.97046 0 0 0-0.96791 0.97076 0.97046 0.97046 0 0 0 0.97076 0.97076 0.97046 0.97046 0 0 0 0.97075-0.97076 0.97046 0.97046 0 0 0-0.95934-0.97076h-5.9e-4a0.97046 0.97046 0 0 0-0.0105 0 0.97046 0.97046 0 0 0-2e-3 0zm6.6869 5.82e-4a0.97046 0.97046 0 0 0-0.95934 0.97076 0.97046 0.97046 0 0 0 0.97076 0.97076 0.97046 0.97046 0 0 0 0.97076-0.97076 0.97046 0.97046 0 0 0-0.97076-0.97076 0.97046 0.97046 0 0 0-0.0105 0zm-3.3528 0.35041a1.4011 1.4011 0 0 0-1.3845 1.4011 1.4011 1.4011 0 0 0 1.4011 1.4011 1.4011 1.4011 0 0 0 1.4011-1.4011 1.4011 1.4011 0 0 0-1.4011-1.4011 1.4011 1.4011 0 0 0-0.0165 0zm-4.476 1.465c-0.3263 0.25686-0.5336 0.63873-0.5336 1.118v0.36582c0 0.4718 0.37966 0.64831 0.85148 0.64831h1.3143c0.14635-0.4876 0.58481-1.165 1.1248-1.4153-0.0791-0.29181-0.24859-0.52905-0.47368-0.70881a1.4223 1.4223 0 0 1-1.1385 0.56956 1.4223 1.4223 0 0 1-1.1448-0.57755zm8.9851 5.82e-4a1.4223 1.4223 0 0 1-1.1448 0.57755 1.4223 1.4223 0 0 1-1.1385-0.56956c-0.22508 0.17976-0.39451 0.417-0.47369 0.70881 0.54003 0.25029 0.97851 0.92773 1.1248 1.4153h1.3143c0.47181 0 0.85149-0.17651 0.85149-0.64831v-0.36582c0-0.47927-0.2073-0.86114-0.53361-1.118zm-5.9883 1.1437c-0.58303 0.37132-0.95992 0.98559-0.95992 1.7743v0.53645c0 0.6925 0.55733 0.95249 1.2498 0.9525h2.4129c0.6925 0 1.2487-0.26 1.2487-0.9525v-0.53645c0-0.78858-0.37763-1.4024-0.96048-1.7737a1.9231 1.9231 0 0 1-1.4952 0.71451 1.9231 1.9231 0 0 1-1.4958-0.71508z" fill="#fff" stroke-linecap="round" stroke-linejoin="round" stroke-width=".59669"/>
 </g>
</svg>
