<?xml version="1.0" encoding="UTF-8"?>
<svg width="9.6214mm" height="9.6214mm" version="1.1" viewBox="0 0 9.6214 9.6214" xmlns="http://www.w3.org/2000/svg" xmlns:cc="http://creativecommons.org/ns#" xmlns:dc="http://purl.org/dc/elements/1.1/" xmlns:rdf="http://www.w3.org/1999/02/22-rdf-syntax-ns#">
 <metadata>
  <rdf:RDF>
   <cc:Work rdf:about="">
    <dc:format>image/svg+xml</dc:format>
    <dc:type rdf:resource="http://purl.org/dc/dcmitype/StillImage"/>
    <dc:title/>
   </cc:Work>
  </rdf:RDF>
 </metadata>
 <g transform="translate(-124.46 -26.412)">
  <path d="m127.78 33.688c-0.38316-0.048-0.7039-0.1294-1.0066-0.2551-0.11003-0.046-0.39287-0.1917-0.50054-0.2584l-0.0489-0.03 0.16047 0.01c0.19043 0.01 0.47699-0.012 0.65817-0.052 0.30096-0.065 0.63415-0.2066 0.88825-0.3765 0.13439-0.09 0.1433-0.1101 0.0489-0.1106-0.0603-2e-4 -0.21673-0.034-0.31698-0.069-0.2803-0.097-0.54173-0.3335-0.68577-0.6197-0.0877-0.1741-0.0878-0.1738 0.0529-0.158 0.0774 0.01 0.15697 0.01 0.2429 0 0.18323-0.023 0.19084-0.029 0.0794-0.064-0.41523-0.1331-0.72524-0.4549-0.84145-0.8734-0.0271-0.098-0.055-0.334-0.0395-0.334 4e-3 0 0.0495 0.019 0.10139 0.043 0.1 0.045 0.25837 0.088 0.38209 0.1031l0.0748 0.01-0.0818-0.068c-0.1006-0.084-0.19398-0.1839-0.25389-0.2713-0.0632-0.092-0.1509-0.2806-0.17708-0.3803-0.0539-0.2056-0.0473-0.4929 0.0158-0.6932 0.039-0.1235 0.0965-0.2488 0.11439-0.2488 5e-3 0 0.0592 0.055 0.11833 0.1221 0.31763 0.3606 0.76882 0.6851 1.2243 0.8804 0.3645 0.1563 0.72366 0.2454 1.1596 0.2875l0.0784 0.01-0.0126-0.066c-0.0175-0.092-0.0165-0.3262 2e-3 -0.4414 0.0797-0.4962 0.47442-0.9006 0.9814-1.0053 0.1359-0.028 0.3713-0.028 0.50916 0 0.20097 0.041 0.41692 0.1505 0.56806 0.2885l0.0878 0.08 0.13052-0.034c0.17738-0.045 0.34858-0.1093 0.51036-0.1904 0.0744-0.037 0.13801-0.065 0.14136-0.062 0.0101 0.01-0.0513 0.1473-0.11138 0.2486-0.0664 0.112-0.20552 0.2637-0.32246 0.3516-0.0583 0.044-0.0748 0.062-0.0554 0.062 0.0922 0 0.42024-0.085 0.58553-0.1515 0.0403-0.016 0.0733-0.025 0.0733-0.02 0 0-0.0346 0.055-0.077 0.1113-0.0931 0.1238-0.29781 0.3317-0.43583 0.4429l-0.10117 0.081v0.1834c0 0.5334-0.12759 1.0583-0.38374 1.5787-0.18169 0.3692-0.39615 0.6724-0.67173 0.9498-0.5317 0.5351-1.166 0.8521-1.9532 0.9761-0.16595 0.026-0.7599 0.039-0.91252 0.02z" fill="#fff" stroke-width=".013954"/>
 </g>
</svg>
