<?xml version="1.0" encoding="UTF-8" standalone="no"?>
<svg
   xmlns:dc="http://purl.org/dc/elements/1.1/"
   xmlns:cc="http://creativecommons.org/ns#"
   xmlns:rdf="http://www.w3.org/1999/02/22-rdf-syntax-ns#"
   xmlns:svg="http://www.w3.org/2000/svg"
   xmlns="http://www.w3.org/2000/svg"
   xmlns:sodipodi="http://sodipodi.sourceforge.net/DTD/sodipodi-0.dtd"
   xmlns:inkscape="http://www.inkscape.org/namespaces/inkscape"
   sodipodi:docname="icon-publ.svg"
   inkscape:version="1.0 (4035a4fb49, 2020-05-01)"
   id="svg1539"
   version="1.1"
   viewBox="0 0 15.971421 15.971421"
   height="15.971421mm"
   width="15.971421mm">
  <defs
     id="defs1533" />
  <sodipodi:namedview
     inkscape:window-maximized="0"
     inkscape:window-y="88"
     inkscape:window-x="2805"
     inkscape:window-height="1040"
     inkscape:window-width="1256"
     fit-margin-bottom="0"
     fit-margin-right="0"
     fit-margin-left="0"
     fit-margin-top="0"
     showgrid="false"
     inkscape:document-rotation="0"
     inkscape:current-layer="layer1"
     inkscape:document-units="mm"
     inkscape:cy="162.59857"
     inkscape:cx="139.10531"
     inkscape:zoom="1.2926237"
     inkscape:pageshadow="2"
     inkscape:pageopacity="0.0"
     borderopacity="1.0"
     bordercolor="#666666"
     pagecolor="#ffffff"
     id="base" />
  <metadata
     id="metadata1536">
    <rdf:RDF>
      <cc:Work
         rdf:about="">
        <dc:format>image/svg+xml</dc:format>
        <dc:type
           rdf:resource="http://purl.org/dc/dcmitype/StillImage" />
        <dc:title></dc:title>
      </cc:Work>
    </rdf:RDF>
  </metadata>
  <g
     transform="translate(-86.697136,-51.083649)"
     id="layer1"
     inkscape:groupmode="layer"
     inkscape:label="Ebene 1">
    <path
       sodipodi:nodetypes="sccssccsccssssccsssscsssssscsscs"
       d="m 94.195727,55.841523 c -0.3994,0 -0.86469,0.287674 -1.0433,0.644905 l -1.94654,3.893558 c -0.4599,0.98029 -0.21283,1.917209 1.14313,1.917209 h 2.96382 c 0.39939,0 0.86469,-0.287675 1.04329,-0.644905 l 1.94654,-3.89356 c 0.17862,-0.357228 4.5e-4,-0.644904 -0.39885,-0.644904 h -0.0767 l -1.87888,3.758236 c -0.17863,0.357232 -0.6439,0.695657 -1.0433,0.695657 h -2.81762 c -0.35221,0 -0.35757,-0.543301 0,-0.543301 h 2.48074 c 0.39941,0 0.86469,-0.287201 1.0433,-0.644432 l 1.94654,-3.893558 c 0.17863,-0.357231 0.001,-0.644905 -0.3984,-0.644905 z m -0.19542,1.077838 h 2.16988 c 0.15478,0 0.22506,0.111702 0.15708,0.250768 -0.0681,0.139069 -0.24738,0.251244 -0.40218,0.251244 h -2.16986 c -0.1548,0 -0.22508,-0.112179 -0.15709,-0.251244 0.0679,-0.139065 0.24738,-0.250768 0.40217,-0.250768 z m -0.49066,1.004026 h 2.16989 c 0.15477,0 0.22459,0.111701 0.1566,0.250771 -0.0681,0.139061 -0.24738,0.251242 -0.40217,0.251242 h -2.16988 c -0.1548,0 -0.22459,-0.112179 -0.15661,-0.251242 0.0681,-0.13907 0.24739,-0.250771 0.40217,-0.250771 z"
       style="fill:#ffffff;stroke-width:0.415409;stroke-linecap:round;stroke-linejoin:round"
       id="rect923" />
  </g>
</svg>
