<?xml version="1.0" encoding="UTF-8"?>
<svg width="15.971mm" height="15.971mm" version="1.1" viewBox="0 0 15.971 15.971" xmlns="http://www.w3.org/2000/svg" xmlns:cc="http://creativecommons.org/ns#" xmlns:dc="http://purl.org/dc/elements/1.1/" xmlns:rdf="http://www.w3.org/1999/02/22-rdf-syntax-ns#">
 <metadata>
  <rdf:RDF>
   <cc:Work rdf:about="">
    <dc:format>image/svg+xml</dc:format>
    <dc:type rdf:resource="http://purl.org/dc/dcmitype/StillImage"/>
    <dc:title/>
   </cc:Work>
  </rdf:RDF>
 </metadata>
 <g transform="translate(-121.08 -22.831)">
  <path d="m129.06 27.325c-1.4441 0.0029-2.6134 1.3495-2.6134 2.778 0 2.492 1.904 4.2061 2.6184 4.2061 0.71442 0 2.6184-1.7141 2.6184-4.2061 0-1.4285-1.1693-2.7751-2.6134-2.778h-6e-3zm-7.1e-4 1.2565a1.3618 1.3618 0 0 1 6e-3 0 1.3618 1.3618 0 0 1 1.3619 1.3619 1.3618 1.3618 0 0 1-1.3619 1.3619 1.3618 1.3618 0 0 1-1.3619-1.3619 1.3618 1.3618 0 0 1 1.3562-1.3619z" fill="#fff"/>
 </g>
</svg>
