<?xml version="1.0" encoding="UTF-8"?>
<svg width="9.6214mm" height="9.6214mm" version="1.1" viewBox="0 0 9.6214 9.6214" xmlns="http://www.w3.org/2000/svg" xmlns:cc="http://creativecommons.org/ns#" xmlns:dc="http://purl.org/dc/elements/1.1/" xmlns:rdf="http://www.w3.org/1999/02/22-rdf-syntax-ns#">
 <metadata>
  <rdf:RDF>
   <cc:Work rdf:about="">
    <dc:format>image/svg+xml</dc:format>
    <dc:type rdf:resource="http://purl.org/dc/dcmitype/StillImage"/>
    <dc:title/>
   </cc:Work>
  </rdf:RDF>
 </metadata>
 <g transform="translate(-122.11 -48.45)">
  <path d="m125.92 55.455c-0.0517-0.0024-0.24829-0.01096-0.43677-0.01886-0.56934-0.02379-0.94439-0.06558-1.095-0.12194-0.24118-0.09023-0.42442-0.29712-0.48988-0.55305-0.0802-0.31361-0.1138-0.74425-0.11455-1.4685-6e-4 -0.62494 0.0113-0.86673 0.0601-1.2188 0.0453-0.32672 0.0865-0.45105 0.19905-0.60081 0.1352-0.17993 0.31694-0.27512 0.60327-0.31595 0.89701-0.12794 3.8085-0.12374 4.5798 0.0066 0.39541 0.06682 0.63011 0.2984 0.7122 0.7027 0.13563 0.66802 0.13552 2.1146-2e-4 2.7969-0.0425 0.21377-0.10708 0.34599-0.22792 0.46683-0.21271 0.21271-0.37304 0.24989-1.324 0.30706-0.21918 0.01319-2.2574 0.02795-2.4661 0.01789zm1.1576-1.7128c0.44239-0.25164 0.80935-0.46252 0.81544-0.46861 6e-3 -0.0061-0.0573-0.04928-0.14103-0.09597-0.10788-0.06018-1.2978-0.73725-1.4792-0.84171-5e-3 -3e-3 -0.0101 0.41486-0.0101 0.92901 0 0.51414 2e-3 0.93481 5e-3 0.93481s0.36723-0.20589 0.80963-0.45753z" fill="#fff" stroke-width=".013439"/>
 </g>
</svg>
