<?xml version="1.0" encoding="UTF-8"?>
<svg width="15.971mm" height="15.971mm" version="1.1" viewBox="4.5 4.5 7 7" xmlns="http://www.w3.org/2000/svg" xmlns:cc="http://creativecommons.org/ns#" xmlns:dc="http://purl.org/dc/elements/1.1/" xmlns:rdf="http://www.w3.org/1999/02/22-rdf-syntax-ns#">
 <metadata>
  <rdf:RDF>
   <cc:Work rdf:about="">
    <dc:format>image/svg+xml</dc:format>
    <dc:type rdf:resource="http://purl.org/dc/dcmitype/StillImage"/>
    <dc:title/>
   </cc:Work>
  </rdf:RDF>
 </metadata>
 <g transform="translate(-97.961 -57.435)">
  <path d="m105.93 62.416a0.96993 0.96993 0 0 0-0.45816 0.12637l-3.5078 1.9918c-0.14974 0.08526-0.23006 0.41358-0.14467 0.56357 0.0849 0.14941 0.31054 0.2932 0.45334 0.23661l3.1991-1.8171a0.96931 0.96931 0 0 1 0.95721 0l3.1991 1.8171c0.1428 0.05657 0.3681-0.08719 0.45333-0.23661 0.0853-0.14999 6e-3 -0.47831-0.14466-0.56357l-1.0621-0.60229v-0.76415a0.55066 0.55066 0 0 0-0.55067-0.55066h-0.17745a0.55066 0.55066 0 0 0-0.55067 0.55066v0.03656l-1.1664-0.66198a0.96993 0.96993 0 0 0-0.49959-0.12637zm-7e-3 1.5547a1.012 1.012 0 0 0-0.45493 0.12261l-1.9569 1.0648a0.92652 0.92652 0 0 0-0.48344 0.81362v1.9031a0.55066 0.55066 0 0 0 0.55066 0.55066h1.3132a0.55066 0.55066 0 0 0 0.55066-0.55066v-0.61519a0.55066 0.55066 0 0 1 0.55066-0.55066 0.51106 0.51106 0 0 1 0.46784 0.55066v0.61519a0.55066 0.55066 0 0 0 0.55065 0.55066h1.3132a0.55066 0.55066 0 0 0 0.55066-0.55066v-1.9031a0.92652 0.92652 0 0 0-0.48344-0.81362l-1.9564-1.0648a1.012 1.012 0 0 0-0.51249-0.12261z" fill="#fff"/>
 </g>
</svg>
